<?xml version="1.0" encoding="utf-8"?>
<svg version="1.1" width="82.7" height="70.8" xmlns="http://www.w3.org/2000/svg" x="0px" y="0px" viewBox="0 0 82.7 70.8" xml:space="preserve">
<circle fill="#10100E" cx="35.4" cy="35.4" r="35.4"/>
<path fill="#10100E" d="M35.2,70.8c-35.2,0-49.1-46.3-18-65.8c-3.7,38.7,16,39.5,34.2,38.7C82,42.2,82.1,70.8,82.1,70.8H35.2z"/>
<path fill="#10100E" fill-rule="evenodd" clip-rule="evenodd" d="M68.9,47C63.6,60.6,50.5,70.3,35,70.8c0.4,0,0.7,0,1.1,0h46.5C82.7,70.8,82.6,54.1,68.9,47z"/>
<path fill="none" stroke="#ffffff" stroke-width="2.6" d="M35.2,70.8c-35.2,0-49.1-46.3-18-65.8c-3.7,38.7,16,39.5,34.2,38.7C82,42.2,82.1,70.8,82.1,70.8"/>
<path fill="none" stroke="#ffffff" stroke-width="2.6" d="M68.9,47C63.6,60.6,50.5,70.3,35,70.8"/>
</svg>