<?xml version="1.0" encoding="utf-8"?>
<svg version="1.1" width="282.9" height="84.5" xmlns="http://www.w3.org/2000/svg" x="0px" y="0px" viewBox="0 0 282.9 84.5" xml:space="preserve">
<style type="text/css">
	.st0{fill:#10100E;}
</style>
<g>
	<path class="st0" d="M155.3,48c0,2.1-0.3,3.5-1.2,4.3c-1.5,1.4-3,1.6-5.4,1.6c-3.3,0-4.9-1.6-4.9-3.9c0-2.4,1.7-3.9,4.8-3.9h6.8V48
		z M163.8,60.6V38.1c0-8-5-12.1-14.6-12.1c-5.7,0-9,1.1-12.3,4.7l5.4,5.3c1.8-2,3.3-2.8,6.6-2.8c4.5,0,6.4,1.6,6.4,5.4v1.7h-8.1
		c-7.9,0-11.7,4.5-11.7,9.9c0,3,1,5.8,2.8,7.7c2,2,4.9,3,8.7,3c3.9,0,6.1-1,8.4-3.3v3H163.8z M130.1,26.4h-8.5v34.2h8.5V26.4z
		 M130.2,13.6h-8.7v7h8.7V13.6z M107.1,43.5c0,5.6-0.7,9.8-5.8,9.8c-5.1,0-5.8-4.3-5.8-9.8c0-5.6,0.7-9.8,5.8-9.8
		C106.4,33.7,107.1,37.9,107.1,43.5 M115.6,60.6V13.9h-8.5v15.5c-2.2-2.5-4.9-3.4-8.3-3.4c-3.3,0-6.4,1.2-8.3,3.1
		C87,32.5,87,38.4,87,43.5s0.1,11,3.5,14.4c1.9,1.9,5.1,3.1,8.4,3.1c3.6,0,6.1-1,8.5-3.6v3.2H115.6z M75.1,40.3h-13
		c0.1-1.5,0.3-2.4,0.8-3.7c0.9-2,2.8-3.5,5.7-3.5c2.9,0,4.8,1.5,5.7,3.5C74.8,37.9,75,38.8,75.1,40.3 M83.5,46.2v-3.8
		C83.5,33,78.1,26,68.6,26c-8.9,0-14.9,6.3-14.9,17.4c0,13.8,7.7,17.5,15.8,17.5c6.2,0,9.5-1.9,13-5.4l-5.2-5.1
		c-2.2,2.2-4,3.2-7.7,3.2c-4.8,0-7.5-3.2-7.5-7.6H83.5z M50.5,60.6V38.8c0-3.7-1-7-3.7-9.7c-1.9-1.9-5-3-8.4-3
		c-4.3,0-7.3,1.3-10.2,4.3c-2.2-3-5.2-4.3-9.1-4.3c-3.1,0-6.3,1.2-8.5,3.5v-3.1H2.2v34.2h8.5V39.9c0-4.7,3-6.2,5.7-6.2
		c2.7,0,5.6,1.6,5.6,6.2v20.7h8.5V39.8c0-4.5,3.1-6,5.7-6c2.7,0,5.6,1.6,5.6,6.2v20.7H50.5z"/>
	<path class="st0" d="M277.8,60.6V38.8c0-3.7-0.7-7-3.5-9.7c-1.9-1.9-4.7-3-8.1-3c-3.1,0-6.3,1.2-8.5,3.5v-3.1h-8.3v34.2h8.5V39.9
		c0-4.7,3-6.2,5.7-6.2c2.7,0,5.6,1.6,5.6,6.2v20.7H277.8z M234.9,42.6c0,4.5-0.6,8.9-5.6,8.9c-5.1,0-5.6-4.4-5.6-8.9
		c0-4.5,0.5-8.9,5.6-8.9C234.3,33.7,234.9,38,234.9,42.6 M243.4,59.4V26.4h-8.3v3.2c-2.4-2.6-4.7-3.6-8.3-3.6c-3.3,0-6.3,1.1-8.2,3
		c-3.2,3.2-3.5,7.5-3.5,13.5c0,6,0.3,10.4,3.5,13.6c1.9,1.9,4.8,3,8.1,3c3.3,0,5.9-0.9,8.1-3.4v3.5c0,3.5-1.8,7.1-6.9,7.1
		c-2.9,0-4.8-0.8-6.7-2.6l-5.3,5.4c3.5,3.4,7.1,4.5,12.4,4.5C237.5,73.5,243.4,67.6,243.4,59.4 M209.3,26.4h-8.5v34.2h8.5V26.4z
		 M209.4,13.6h-8.7v7h8.7V13.6z M196.6,49.9c0-5.8-3.4-9.4-10.2-10l-5.4-0.5c-3-0.3-3.5-1.7-3.5-2.9c0-1.7,1.5-3.3,4.9-3.3
		c3,0,6,0.5,7.9,2.3l5.3-5.3c-3.3-3.1-7.7-4-13.1-4c-6.9,0-13.2,3.8-13.2,10.9c0,6.3,3.8,9,10,9.6l5.4,0.5c2.7,0.3,3.6,1.4,3.6,3.1
		c0,2.6-3.1,3.5-6,3.5c-2.6,0-6.3-0.4-9.1-3.2l-5.6,5.6c4.3,4.3,9.2,4.9,14.6,4.9C190.2,61,196.6,57.4,196.6,49.9"/>
</g>
</svg>