<svg width="68" height="60" viewBox="0 0 68 60" fill="none" xmlns="http://www.w3.org/2000/svg">
<path d="M20.8218 14.4663V6.26587H25.1024V4.05045H13.9165V6.26587H18.1443V14.4663H20.8218Z" fill="#09090A"></path>
<path d="M38.5343 9.25835C38.5343 6.05094 35.9624 3.85205 32.7388 3.85205C29.4975 3.85205 26.9256 6.05094 26.9256 9.25835C26.9256 12.4658 29.4975 14.6647 32.7388 14.6647C35.9624 14.6647 38.5343 12.4658 38.5343 9.25835ZM35.7687 9.25835C35.7687 11.1927 34.5356 12.4492 32.7388 12.4492C30.9244 12.4492 29.6913 11.1927 29.6913 9.25835C29.6913 7.32399 30.9244 6.06748 32.7388 6.06748C34.5356 6.06748 35.7687 7.32399 35.7687 9.25835Z" fill="#09090A"></path>
<path d="M48.1877 14.4663L51.1295 6.44774H51.2V14.4663H53.948V4.05045H49.7202L47.6064 10.2834H47.5535L45.3868 4.05045H41.1943V14.4663H43.7309V6.44774H43.8014L46.7608 14.4663H48.1877Z" fill="#09090A"></path>
<path d="M61.9253 6.7784H61.9957L63.4402 10.333H60.4984L61.9253 6.7784ZM65.1313 14.4663H67.9674L63.5459 4.05045H60.5513L56.1297 14.4663H58.8249L59.7233 12.2343H64.2153L65.1313 14.4663Z" fill="#09090A"></path>
<path d="M17.1754 35.1325V30.867H22.601V35.1325H25.2786V24.7167H22.601V28.6847H17.1754V24.7167H14.4978V35.1325H17.1754Z" fill="#09090A"></path>
<path d="M32.9909 27.4447H33.0614L34.5059 30.9993H31.5641L32.9909 27.4447ZM36.197 35.1325H39.0331L34.6116 24.7167H31.6169L27.1954 35.1325H29.8906L30.789 32.9006H35.281L36.197 35.1325Z" fill="#09090A"></path>
<path d="M48.6138 24.7167H46.1828L44.2099 31.6937H44.1394L42.2193 24.7167H39.5417L42.4835 35.1325H45.3197L47.2926 28.1721H47.3631L49.336 35.1325H52.225L55.1668 24.7167H52.5773L50.6572 31.7102H50.5867L48.6138 24.7167Z" fill="#09090A"></path>
<path d="M68.0002 35.1325L63.244 28.9161L67.6655 24.7167H64.5299L59.9146 29.1972V24.7167H57.237V35.1325H59.9146V31.9251L61.3062 30.5529L64.7413 35.1325H68.0002Z" fill="#09090A"></path>
<path d="M14.1807 55.7988H16.964V53.1866H14.1807V55.7988Z" fill="#09090A"></path>
<path d="M24.5434 55.7988L28.9121 45.383H26.1112L23.2398 52.7568H23.1694L20.2804 45.383H17.3386L21.7073 55.7988H24.5434Z" fill="#09090A"></path>
<path d="M38.4231 51.649C38.1589 52.8394 37.3662 53.7983 35.6751 53.7983C33.9135 53.7983 32.7333 52.5418 32.7333 50.5909C32.7333 48.64 33.8959 47.3835 35.6927 47.3835C37.2781 47.3835 38.0884 48.2598 38.3879 49.3509L40.7836 48.3094C40.1142 46.4411 38.3879 45.1846 35.7103 45.1846C32.4867 45.1846 29.9676 47.3835 29.9676 50.5909C29.9676 53.7983 32.4867 55.9972 35.6927 55.9972C38.5993 55.9972 40.3609 54.5589 40.9069 52.4426L38.4231 51.649Z" fill="#09090A"></path>
<path d="M0 4.13326L4.40391 0V55.799L0 59.9322V4.13326Z" fill="#10100E"></path>
</svg>