<?xml version="1.0" encoding="utf-8"?>
<svg version="1.1" xmlns="http://www.w3.org/2000/svg" x="0px" y="0px" viewBox="0 0 66 60">
<g fill="#10100E">
	<path d="M20.2,14.9V7h4.2V4.8H13.5V7h4.1v8h2.6V14.9z"/>
	<path d="M37.4,9.9c0-3.1-2.5-5.2-5.6-5.2s-5.6,2.1-5.6,5.2s2.5,5.2,5.6,5.2C34.9,15.1,37.4,13,37.4,9.9z M34.7,9.9
		c0,1.9-1.2,3.1-2.9,3.1c-1.8,0-3-1.2-3-3.1s1.2-3.1,3-3.1C33.5,6.8,34.7,8,34.7,9.9z"/>
	<path d="M46.8,14.9l2.9-7.8h0.1v7.8h2.7V4.8h-4.1l-2.1,6h-0.1l-2.1-6H40v10.1h2.5V7.1h0.1l2.9,7.8H46.8z"/>
	<path d="M60.1,7.5L60.1,7.5l1.5,3.5h-2.9L60.1,7.5z M63.2,14.9H66L61.7,4.8h-2.9l-4.3,10.1h2.6l0.9-2.2h4.4L63.2,14.9z"/>
	<path d="M16.7,35v-4.1H22V35h2.6V24.9H22v3.9h-5.3v-3.9h-2.6V35H16.7z"/>
	<path d="M32,27.5L32,27.5l1.5,3.5h-2.9L32,27.5z M35.1,35h2.8l-4.3-10.1h-2.9L26.4,35H29l0.9-2.2h4.4L35.1,35z"/>
	<path d="M47.2,24.9h-2.4l-1.9,6.8h-0.1L41,24.9h-2.6L41.2,35H44l1.9-6.8H46l1.9,6.8h2.8l2.9-10.1H51l-1.9,6.8H49
		L47.2,24.9z"/>
	<path d="M66,35l-4.6-6l4.3-4.1h-3l-4.5,4.3v-4.3h-2.6V35h2.6v-3.1l1.4-1.3l3.3,4.4H66z"/>
	<path d="M13.8,55h2.7v-2.5h-2.7V55z"/>
	<path d="M23.8,55L28,44.9h-2.7l-2.8,7.2h-0.1l-2.8-7.2h-2.9L21.1,55H23.8z"/>
	<path d="M37.3,51c-0.3,1.2-1,2.1-2.7,2.1s-2.9-1.2-2.9-3.1s1.1-3.1,2.9-3.1c1.5,0,2.3,0.9,2.6,1.9l2.3-1
		c-0.6-1.8-2.3-3-4.9-3c-3.1,0-5.6,2.1-5.6,5.2s2.4,5.2,5.6,5.2c2.8,0,4.5-1.4,5.1-3.5L37.3,51z"/>
</g>
<path fill="#10100E" d="M0,4.9l4.3-4V55L0,59V4.9z"/>
</svg>
